<svg width="22" height="22" viewBox="0 0 22 22" fill="none" xmlns="http://www.w3.org/2000/svg">
<path d="M15.125 4.125V12.375H5.53438C5.01875 12.375 4.5375 12.5125 4.125 12.7531V5.51719C4.125 4.74375 4.74375 4.125 5.51719 4.125H15.125ZM16.5 2.75H5.51719C3.9875 2.75 2.75 3.9875 2.75 5.51719V16.4828C2.75 18.0125 3.9875 19.25 5.51719 19.25H19.25V4.125H17.875V17.875H5.53438C4.76094 17.875 4.125 17.2391 4.125 16.4656V15.1594C4.125 14.3859 4.76094 13.75 5.53438 13.75H16.5V2.75ZM16.5 15.125H5.5V16.5H16.5V15.125Z" fill="white"/>
</svg>
