<svg width="17" height="17" viewBox="0 0 17 17" fill="none" xmlns="http://www.w3.org/2000/svg">
<g clip-path="url(#clip0_113_4726)">
<path d="M7.93333 10.4363C7.60277 10.4363 7.22499 10.2947 6.94166 10.0113C6.42222 9.49189 6.42222 8.59467 6.94166 8.07523L14.6389 0.425228C15.1583 -0.0942166 16.0555 -0.0942166 16.575 0.425228C17.0944 0.944672 17.0944 1.84189 16.575 2.36134L8.92499 10.0113C8.64166 10.2947 8.31111 10.4363 7.93333 10.4363Z" fill="white"/>
<path d="M16.1972 17H0.802778C0.330556 17 0 16.6222 0 16.1972V0.802778C0 0.377778 0.377778 0 0.802778 0C1.275 0 1.60556 0.377778 1.60556 0.802778V15.3472H16.15C16.6222 15.3472 16.9528 15.725 16.9528 16.15C17 16.6222 16.6222 17 16.1972 17Z" fill="white"/>
</g>
<defs>
<clipPath id="clip0_113_4726">
<rect width="17" height="17" fill="white"/>
</clipPath>
</defs>
</svg>
