<svg width="23" height="23" viewBox="0 0 23 23" fill="none" xmlns="http://www.w3.org/2000/svg">
<path d="M21.2465 2.93711C21.0749 2.594 20.6562 2.45153 20.3102 2.62309L2.07342 11.6804C1.73031 11.852 1.58784 12.2707 1.75939 12.6167C1.7972 12.6923 1.84663 12.7592 1.90478 12.8144C1.98036 12.8871 2.0705 12.9424 2.17811 12.9772L8.31327 14.905L9.25535 13.7361L4.24838 12.1631L17.9841 5.33592L10.6365 14.2304C10.6193 14.2505 10.6038 14.2719 10.5899 14.2944L9.74089 15.3499V19.7288C9.74089 20.1155 10.052 20.4266 10.4387 20.4266C10.8254 20.4266 11.1366 20.1155 11.1366 19.7288V15.786L17.8096 17.8795C17.8881 17.9027 17.9667 17.9144 18.0451 17.9114C18.3824 17.9202 18.6877 17.6817 18.7517 17.3386L21.3075 3.37901C21.3162 3.33249 21.3191 3.28306 21.3191 3.23654C21.3162 3.13767 21.2959 3.033 21.2464 2.93707L21.2465 2.93711ZM17.5188 16.3268L12.1193 14.6317L19.4582 5.74588L17.5188 16.3268L17.5188 16.3268Z" fill="white"/>
</svg>
