<svg width="19" height="19" viewBox="0 0 19 19" fill="none" xmlns="http://www.w3.org/2000/svg">
<path fill-rule="evenodd" clip-rule="evenodd" d="M10.788 0.189822C10.8944 0.137593 11.0108 0.106147 11.1286 0.0983303C11.4747 0.0390418 11.8427 0 12.2151 0H12.2378C15.9613 0 19.0055 3.0477 19.0055 6.77391C19.0055 7.176 18.982 7.57382 18.8816 8.00215C18.8484 8.14905 18.776 8.28119 18.6779 8.38928C18.5786 8.51572 18.4394 8.61641 18.2601 8.66821C17.0941 9.05804 15.9937 9.57784 14.9682 10.2228H15.2335C15.7117 10.2228 16.1005 10.6126 16.1005 11.0902C16.1005 11.5678 15.7117 11.9576 15.2335 11.9576H13.2636V14.6568C13.2636 15.1345 12.8748 15.5242 12.3966 15.5242C11.9185 15.5242 11.5297 15.1345 11.5297 14.6568V13.2142C10.2458 14.7176 9.26261 16.4282 8.65933 18.3045L8.64969 18.3345L8.63562 18.3627C8.50091 18.6324 8.22374 18.9092 7.81221 18.9092L7.80465 18.9093L7.7952 18.9093C7.47449 18.9646 7.12266 19 6.76823 19C3.04466 19 0.000518799 15.9523 0.000518799 12.2261C0.000518799 12.1553 0.0012457 12.0847 0.00299093 12.014C0.00134709 11.9638 0.000518799 11.9133 0.000518799 11.8626C0.000518799 11.5898 0.0251302 11.2924 0.0752542 11.0164C0.145888 10.6275 0.457258 10.3477 0.831675 10.3102C2.69929 9.66739 4.3965 8.68874 5.88389 7.39418C5.92216 7.36066 5.96027 7.32706 5.99822 7.29337C6.06261 7.20866 6.14219 7.13733 6.23201 7.08255C6.55079 6.79027 6.85671 6.48858 7.14609 6.16687C6.51815 6.88972 6.872 6.48248 7.14982 6.16272C7.22858 6.07507 7.30611 5.98594 7.38233 5.8951L7.14982 6.16272L7.14609 6.16687L7.38687 5.8897C7.53203 5.7226 7.67346 5.55289 7.81103 5.38064C7.8667 5.25977 7.94867 5.15732 8.04754 5.077C9.03068 3.78243 9.80007 2.3507 10.3109 0.8052C10.3612 0.536247 10.5377 0.307381 10.788 0.189822ZM5.76427 13.681L4.87712 14.7633C4.8163 14.766 4.74618 14.7663 4.65757 14.7663C3.09661 14.7663 1.81722 13.5319 1.73828 12.0116C1.73859 12.0032 1.73892 11.9948 1.73927 11.9864C1.82601 11.9822 1.91361 11.9803 2.00222 11.9803C3.49394 11.9803 4.84016 12.6394 5.76427 13.681ZM7.70396 13.358C7.65793 13.239 7.58475 13.1285 7.48503 13.0368C6.69504 11.9456 5.58892 11.097 4.30402 10.6283C5.22564 10.1024 6.09718 9.487 6.91089 8.78738C8.46762 9.27752 9.71214 10.51 10.2032 12.0801C9.50104 12.8955 8.88883 13.7685 8.36403 14.6909C8.19259 14.2204 7.97033 13.7739 7.70396 13.358ZM4.05014 16.4615C4.24901 16.4876 4.45178 16.5011 4.65757 16.5011C4.93243 16.5011 5.20683 16.4761 5.48048 16.4263L5.48759 16.4249C5.66738 16.3889 5.85821 16.3053 6.00298 16.117L6.71389 15.2507C6.92201 15.8017 7.03603 16.3979 7.03603 17.0194C7.03603 17.1001 7.03447 17.18 7.03101 17.2591C6.94432 17.2633 6.85677 17.2652 6.76823 17.2652C5.76925 17.2652 4.83554 16.9696 4.05014 16.4615ZM13.7218 8.96226C13.0367 7.27889 11.7031 5.95212 10.0302 5.26818C10.7569 4.1705 11.3482 2.99256 11.8089 1.74938C11.9438 1.73915 12.0803 1.73478 12.2151 1.73478C14.9824 1.73478 17.2489 4.00295 17.2489 6.77391C17.2489 6.91918 17.2445 7.05728 17.2342 7.19083C15.9923 7.64074 14.8167 8.23445 13.7218 8.96226ZM8.93471 6.73783C8.85446 6.8338 8.77299 6.929 8.6903 7.02341C8.55938 7.17233 8.42539 7.31975 8.28873 7.46526C9.70385 8.1346 10.8566 9.28862 11.5251 10.705C11.6627 10.576 11.802 10.4494 11.9426 10.3255C12.0447 10.2359 12.1477 10.1477 12.2517 10.0608C11.763 8.47151 10.5215 7.22808 8.93471 6.73783Z" fill="#3930FF"/>
</svg>
