<svg width="17" height="19" viewBox="0 0 17 19" fill="none" xmlns="http://www.w3.org/2000/svg">
<path d="M17 17.5195V19H0V17.5195H17ZM8.47706 0C10.8706 0 12.567 1.33938 12.8772 3.60901C13.0537 4.90545 12.6189 6.16735 11.5298 7.44356C11.1259 7.91733 10.9424 8.68275 11.0586 9.3174C11.1952 10.0611 11.6669 10.5048 12.2489 10.5418L12.3286 10.5443H15.2497L16.6849 15.7922H0.269271L1.70539 10.5443H4.62449C5.24331 10.5443 5.75243 10.0952 5.89505 9.3174C6.01123 8.68275 5.82773 7.91732 5.42482 7.44455C4.33527 6.16735 3.89995 4.90545 4.07697 3.60901C4.38613 1.33938 6.08354 0 8.47656 0H8.47706ZM8.47706 1.48052C6.80559 1.48052 5.7654 2.30171 5.55996 3.8074C5.44327 4.66265 5.73748 5.51543 6.56823 6.48961C7.26983 7.31278 7.56054 8.52681 7.36707 9.58143C7.10777 11.0022 6.05163 11.9685 4.74117 12.0223L4.62499 12.0248H2.84979L2.22348 14.3117H14.7301L14.1043 12.0248H12.3286C11.0446 12.0248 9.98398 11.1547 9.64091 9.83114L9.61099 9.70579L9.58606 9.58143C9.39308 8.52631 9.6843 7.31229 10.3859 6.48912C11.2166 5.51543 11.5109 4.66265 11.3942 3.8074C11.1882 2.30171 10.1485 1.48052 8.47656 1.48052H8.47706Z" fill="#3930FF"/>
</svg>
